<?xml version="1.0" encoding="utf-8"?>
<!-- Generator: Adobe Illustrator 25.0.1, SVG Export Plug-In . SVG Version: 6.00 Build 0)  -->
<svg version="1.1" id="Layer_1" xmlns="http://www.w3.org/2000/svg" xmlns:xlink="http://www.w3.org/1999/xlink" x="0px" y="0px"
	 viewBox="0 0 835.28 783.47" style="enable-background:new 0 0 835.28 783.47;" xml:space="preserve">
<style type="text/css">
	.st0{fill:#FFFFFF;stroke:#000000;stroke-width:3;stroke-miterlimit:10;}
</style>
<g id="HNTgWw_1_">
	<g>
		<path class="st0" d="M277.64,31.06c39.81,16.51,61.4,48.81,74.74,87.62c24.44,71.13,24.26,142.89,4.4,215.07
			c-3.29,11.95-9.77,17.51-22.06,20.15c-31.79,6.83-63.29,15.03-96.7,23.22c-3.18,0.78-6.53-0.34-8.59-2.88
			c-5.49-6.75-11.62-13.44-15.38-21.27c-28.76-59.9-46.03-122.76-43.98-189.73c0.59-19.17,2.22-38.76,7.24-57.3
			C205.04,3.48,277.64,31.06,277.64,31.06z"/>
		<path class="st0" d="M405.32,561.02c6.26-10.92,13.79-21.18,21.36-31.27c4.64-6.19,10.47-11.5,16.8-18.31
			c34.11,18.53,67.72,36.79,101.09,54.92c-8.01,61.95-81.21,126.27-129.91,105.46C379.25,650.74,378.11,608.48,405.32,561.02z"/>
		<path class="st0" d="M671.33,323.57c-1.95,23.36-6.94,46.37-14.95,68.41c-17.5,48.16-40.1,93.37-74.16,132.67
			c-14.47,16.69-17.24,16.56-36.92,7.26c-25.57-12.07-50.84-24.79-76.63-36.38c-11.16-5.01-16.86-12.17-17.55-24.41
			c-4.76-84.46,13.15-162.73,64.59-231.22c9.55-12.72,22.49-23.54,35.57-32.85c41.74-29.73,111.74-7.28,119.55,51.58
			c1.11,8.34,3.71,16.72,3.3,24.97C673.46,296.95,672.43,310.29,671.33,323.57z"/>
		<path class="st0" d="M355.18,374.67c22.27,33.47,37.37,67.61,31.82,107.68c-3.57,25.8-16.31,46.02-41.61,54.39
			c-25.86,8.56-47.45-2.12-64.77-21.31c-21.89-24.25-29.85-54.59-35.22-85.77c-1.11-6.45-1.26-13.06-2.01-21.28
			C280.24,397.27,316.98,386.19,355.18,374.67z"/>
	</g>
</g>
</svg>
